#tb 0: 1/10
0,          0,          0,        1,   147456, 0x00000000
0,          1,          1,        1,   147456, 0x7be40798
0,          2,          2,        1,   147456, 0x44bc2fc0
0,          3,          3,        1,   147456, 0x82676740
0,          4,          4,        1,   147456, 0xd8b8ad10
0,          5,          5,        1,   147456, 0x816f1c51
0,          6,          6,        1,   147456, 0x43cdb992
0,          7,          7,        1,   147456, 0x795198be
0,          8,          8,        1,   147456, 0x4738b47b
0,          9,          9,        1,   147456, 0xd05f2cca
0,         10,         10,        1,   147456, 0xe1b2d879
0,         11,         11,        1,   147456, 0x538e0987
0,         12,         12,        1,   147456, 0x2009cbce
0,         13,         13,        1,   147456, 0xf4fedfdf
0,         14,         14,        1,   147456, 0x288cfddb
0,         15,         15,        1,   147456, 0x27be3801
0,         16,         16,        1,   147456, 0xba20cf85
0,         17,         17,        1,   147456, 0x16dda72f
0,         18,         18,        1,   147456, 0x06742d33
0,         19,         19,        1,   147456, 0x268b800a
0,         20,         20,        1,   147456, 0x3094518e
0,         21,         21,        1,   147456, 0xea944b0d
0,         22,         22,        1,   147456, 0xf99990e0
0,         23,         23,        1,   147456, 0x609a90de
0,         24,         24,        1,   147456, 0xcde18594
0,         25,         25,        1,   147456, 0x86b3d02d
0,         26,         26,        1,   147456, 0x38d99cd7
0,         27,         27,        1,   147456, 0x5cbfa3d2
0,         28,         28,        1,   147456, 0xf292759f
0,         29,         29,        1,   147456, 0xdae223dd
0,         30,         30,        1,   147456, 0x55097657
0,         31,         31,        1,   147456, 0x5ea6276c
0,         32,         32,        1,   147456, 0x85532d21
0,         33,         33,        1,   147456, 0x21c447d1
0,         34,         34,        1,   147456, 0x6cbb700d
0,         35,         35,        1,   147456, 0x889c443a
0,         36,         36,        1,   147456, 0xad4171fd
0,         37,         37,        1,   147456, 0xab26d665
0,         38,         38,        1,   147456, 0xcf8a2e29
0,         39,         39,        1,   147456, 0xc934a62a
0,         40,         40,        1,   147456, 0xacca580c
0,         41,         41,        1,   147456, 0xacca580c
0,         42,         42,        1,   147456, 0xacca580c
0,         43,         43,        1,   147456, 0xacca580c
0,         44,         44,        1,   147456, 0xacca580c
0,         45,         45,        1,   147456, 0xacca580c
0,         46,         46,        1,   147456, 0xacca580c
0,         47,         47,        1,   147456, 0xacca580c
0,         48,         48,        1,   147456, 0xacca580c
0,         49,         49,        1,   147456, 0xacca580c
0,         50,         50,        1,   147456, 0xacca580c
0,         51,         51,        1,   147456, 0xacca580c
0,         52,         52,        1,   147456, 0xacca580c
0,         53,         53,        1,   147456, 0xacca580c
0,         54,         54,        1,   147456, 0xacca580c
0,         55,         55,        1,   147456, 0xacca580c
0,         56,         56,        1,   147456, 0xacca580c
0,         57,         57,        1,   147456, 0xacca580c
0,         58,         58,        1,   147456, 0xdd6a7104
0,         59,         59,        1,   147456, 0x33e84c72
0,         60,         60,        1,   147456, 0x86526e6a
0,         61,         61,        1,   147456, 0x569863ad
0,         62,         62,        1,   147456, 0x6269920f
0,         63,         63,        1,   147456, 0x9ce49665
0,         64,         64,        1,   147456, 0x782fcf56
0,         65,         65,        1,   147456, 0x4401ef4a
0,         66,         66,        1,   147456, 0xe06ffba8
0,         67,         67,        1,   147456, 0xc87b2af3
0,         68,         68,        1,   147456, 0x9fcaf0ef
0,         69,         69,        1,   147456, 0x00000000
0,         70,         70,        1,   147456, 0x00000000
0,         71,         71,        1,   147456, 0x00000000
0,         72,         72,        1,   147456, 0x00000000
0,         73,         73,        1,   147456, 0x00000000
0,         74,         74,        1,   147456, 0x00000000
0,         75,         75,        1,   147456, 0x00000000
0,         76,         76,        1,   147456, 0x00000000
0,         77,         77,        1,   147456, 0x00000000
0,         78,         78,        1,   147456, 0x00000000
0,         79,         79,        1,   147456, 0x00000000
0,         80,         80,        1,   147456, 0xc30c145f
0,         81,         81,        1,   147456, 0x2d51e3c6
0,         82,         82,        1,   147456, 0x5d41d6d2
0,         83,         83,        1,   147456, 0x7abf857a
0,         84,         84,        1,   147456, 0xd72e22f3
0,         85,         85,        1,   147456, 0x89548b30
0,         86,         86,        1,   147456, 0xd26fc965
0,         87,         87,        1,   147456, 0xc664fe62
0,         88,         88,        1,   147456, 0x51608d9e
0,         89,         89,        1,   147456, 0xf188e257
0,         90,         90,        1,   147456, 0x3d82f8bd
0,         91,         91,        1,   147456, 0x08e38aa9
0,         92,         92,        1,   147456, 0xb0c78fc3
0,         93,         93,        1,   147456, 0xeec1ce57
0,         94,         94,        1,   147456, 0xac75dd73
0,         95,         95,        1,   147456, 0x94beecca
0,         96,         96,        1,   147456, 0xfa417ee8
0,         97,         97,        1,   147456, 0x68ee990a
0,         98,         98,        1,   147456, 0x3df4bcd2
0,         99,         99,        1,   147456, 0xff68d376
0,        100,        100,        1,   147456, 0x4a211592
0,        101,        101,        1,   147456, 0x6ce6b6f2
0,        102,        102,        1,   147456, 0x8f17ca91
0,        103,        103,        1,   147456, 0xcb94232c
0,        104,        104,        1,   147456, 0x46b58bcd
0,        105,        105,        1,   147456, 0x260e8b49
0,        106,        106,        1,   147456, 0xd9f55cb1
0,        107,        107,        1,   147456, 0x96e0b93c
0,        108,        108,        1,   147456, 0xdbb4e51c
0,        109,        109,        1,   147456, 0x3a4c7fcd
0,        110,        110,        1,   147456, 0x25c58597
0,        111,        111,        1,   147456, 0xfc0afd6a
0,        112,        112,        1,   147456, 0x65aae479
0,        113,        113,        1,   147456, 0x9c060d17
0,        114,        114,        1,   147456, 0xac1f5d8c
0,        115,        115,        1,   147456, 0x627bf813
0,        116,        116,        1,   147456, 0x2b6d2bbc
0,        117,        117,        1,   147456, 0x4d6b8274
0,        118,        118,        1,   147456, 0x89ab152b
0,        119,        119,        1,   147456, 0xdcb31afc
0,        120,        120,        1,   147456, 0x9aac1a8b
0,        121,        121,        1,   147456, 0xe8ad1a42
0,        122,        122,        1,   147456, 0x05e019de
0,        123,        123,        1,   147456, 0x541e1991
0,        124,        124,        1,   147456, 0xeb5d182b
0,        125,        125,        1,   147456, 0x00ef16e4
0,        126,        126,        1,   147456, 0xe91a164b
0,        127,        127,        1,   147456, 0xc37014bf
0,        128,        128,        1,   147456, 0xb87b130a
0,        129,        129,        1,   147456, 0x879f1202
0,        130,        130,        1,   147456, 0x8de710f6
0,        131,        131,        1,   147456, 0x499910b0
0,        132,        132,        1,   147456, 0x494f0f49
0,        133,        133,        1,   147456, 0x1d090f09
0,        134,        134,        1,   147456, 0x31930e92
0,        135,        135,        1,   147456, 0x42fe0d72
0,        136,        136,        1,   147456, 0xc8980c5d
0,        137,        137,        1,   147456, 0xd1fc0b7b
0,        138,        138,        1,   147456, 0x2b620a27
0,        139,        139,        1,   147456, 0xe9cf08f4
0,        140,        140,        1,   147456, 0x4fb707ea
0,        141,        141,        1,   147456, 0x8ec706fa
0,        142,        142,        1,   147456, 0xde090640
0,        143,        143,        1,   147456, 0xf7b1059d
0,        144,        144,        1,   147456, 0xf7b1059d
0,        145,        145,        1,   147456, 0x581902c4
0,        146,        146,        1,   147456, 0x2b18d1e7
0,        147,        147,        1,   147456, 0xe07b8612
0,        148,        148,        1,   147456, 0xdf341f10
0,        149,        149,        1,   147456, 0x5c43a9df
0,        150,        150,        1,   147456, 0xaf121817
0,        151,        151,        1,   147456, 0x53ba70bf
